<mxfile host="Electron" agent="Mozilla/5.0 (Windows NT 10.0; Win64; x64) AppleWebKit/537.36 (KHTML, like Gecko) draw.io/26.0.9 Chrome/128.0.6613.186 Electron/32.2.5 Safari/537.36" version="26.0.9">
  <diagram name="Seite-1" id="RAakanCPxx20ZKsU9evX">
    <mxGraphModel dx="2261" dy="2013" grid="1" gridSize="10" guides="1" tooltips="1" connect="1" arrows="1" fold="1" page="1" pageScale="1" pageWidth="827" pageHeight="1169" math="0" shadow="0">
      <root>
        <mxCell id="0" />
        <mxCell id="1" parent="0" />
        <UserObject label="&lt;font style=&quot;font-size: 15px;&quot;&gt;&lt;br&gt;&lt;span&gt;&lt;h3 class=&quot;LC20lb MBeuO DKV0Md&quot;&gt;ACM&lt;br style=&quot;font-size: 15px;&quot;&gt;&amp;nbsp;Digital Library&lt;/h3&gt;&lt;div&gt;Resutls: 1331&lt;/div&gt;&lt;/span&gt;&lt;/font&gt;" id="kCs5vxGw46p87-mSVRC9-5">
          <mxCell style="strokeWidth=2;html=1;shape=mxgraph.flowchart.database;whiteSpace=wrap;fillColor=#dae8fc;strokeColor=#6c8ebf;" parent="1" vertex="1">
            <mxGeometry x="360" y="276.25" width="160" height="130" as="geometry" />
          </mxCell>
        </UserObject>
        <UserObject label="&lt;font style=&quot;font-size: 15px;&quot;&gt;&lt;span&gt;&lt;h3 class=&quot;LC20lb MBeuO DKV0Md&quot;&gt;IEEE&lt;/h3&gt;&lt;div&gt;Results: 2325&lt;/div&gt;&lt;/span&gt;&lt;/font&gt;" id="kCs5vxGw46p87-mSVRC9-7">
          <mxCell style="strokeWidth=2;html=1;shape=mxgraph.flowchart.database;whiteSpace=wrap;fillColor=#dae8fc;strokeColor=#6c8ebf;" parent="1" vertex="1">
            <mxGeometry x="360" y="530" width="160" height="130" as="geometry" />
          </mxCell>
        </UserObject>
        <UserObject label="&lt;font style=&quot;font-size: 15px;&quot;&gt;&lt;span&gt;&lt;h3 class=&quot;LC20lb MBeuO DKV0Md&quot;&gt;&lt;span&gt;&lt;a data-ved=&quot;2ahUKEwi6nIKY-eWJAxUc9rsIHRbrDrkQFnoECAwQAQ&quot; href=&quot;https://www.sciencedirect.com/&quot;&gt;&lt;/a&gt;&lt;/span&gt;&lt;/h3&gt;&lt;h3 class=&quot;LC20lb MBeuO DKV0Md&quot;&gt;ScienceDirect&lt;/h3&gt;&lt;div&gt;Results: 2484&lt;/div&gt;&lt;/span&gt;&lt;/font&gt;" id="kCs5vxGw46p87-mSVRC9-8">
          <mxCell style="strokeWidth=2;html=1;shape=mxgraph.flowchart.database;whiteSpace=wrap;fillColor=#dae8fc;strokeColor=#6c8ebf;" parent="1" vertex="1">
            <mxGeometry x="360" y="790" width="160" height="130" as="geometry" />
          </mxCell>
        </UserObject>
        <mxCell id="kCs5vxGw46p87-mSVRC9-9" value="" style="endArrow=classic;html=1;rounded=0;" parent="1" edge="1">
          <mxGeometry width="50" height="50" relative="1" as="geometry">
            <mxPoint x="530" y="850" as="sourcePoint" />
            <mxPoint x="690" y="535" as="targetPoint" />
          </mxGeometry>
        </mxCell>
        <mxCell id="kCs5vxGw46p87-mSVRC9-10" value="" style="endArrow=classic;html=1;rounded=0;" parent="1" edge="1">
          <mxGeometry width="50" height="50" relative="1" as="geometry">
            <mxPoint x="530" y="340" as="sourcePoint" />
            <mxPoint x="690" y="515" as="targetPoint" />
          </mxGeometry>
        </mxCell>
        <mxCell id="kCs5vxGw46p87-mSVRC9-11" value="" style="endArrow=classic;html=1;rounded=0;" parent="1" edge="1">
          <mxGeometry width="50" height="50" relative="1" as="geometry">
            <mxPoint x="530" y="600" as="sourcePoint" />
            <mxPoint x="680" y="525" as="targetPoint" />
          </mxGeometry>
        </mxCell>
        <mxCell id="kCs5vxGw46p87-mSVRC9-12" value="Manual online search" style="rounded=1;whiteSpace=wrap;html=1;fillColor=#d5e8d4;strokeColor=#82b366;" parent="1" vertex="1">
          <mxGeometry x="720" y="480" width="120" height="80" as="geometry" />
        </mxCell>
        <mxCell id="kCs5vxGw46p87-mSVRC9-13" value="Search with&lt;div&gt;&lt;div class=&quot;md-header__topic&quot;&gt;&lt;span class=&quot;md-ellipsis&quot;&gt;&amp;nbsp; &amp;nbsp;acl-anthology-py&amp;nbsp; &amp;nbsp; &amp;nbsp; &amp;nbsp; &amp;nbsp; &amp;nbsp;&lt;/span&gt;&lt;/div&gt;&lt;/div&gt;" style="rounded=1;whiteSpace=wrap;html=1;fillColor=#d5e8d4;strokeColor=#82b366;" parent="1" vertex="1">
          <mxGeometry x="720" y="160" width="120" height="80" as="geometry" />
        </mxCell>
        <mxCell id="kCs5vxGw46p87-mSVRC9-14" value="" style="endArrow=classic;html=1;rounded=0;" parent="1" edge="1">
          <mxGeometry width="50" height="50" relative="1" as="geometry">
            <mxPoint x="540" y="100" as="sourcePoint" />
            <mxPoint x="680" y="184.70999999999998" as="targetPoint" />
          </mxGeometry>
        </mxCell>
        <mxCell id="kCs5vxGw46p87-mSVRC9-16" value="" style="endArrow=classic;html=1;rounded=0;" parent="1" edge="1">
          <mxGeometry width="50" height="50" relative="1" as="geometry">
            <mxPoint x="860" y="515" as="sourcePoint" />
            <mxPoint x="980" y="460" as="targetPoint" />
          </mxGeometry>
        </mxCell>
        <mxCell id="kCs5vxGw46p87-mSVRC9-17" value="" style="endArrow=classic;html=1;rounded=0;" parent="1" edge="1">
          <mxGeometry width="50" height="50" relative="1" as="geometry">
            <mxPoint x="830" y="195" as="sourcePoint" />
            <mxPoint x="960" y="260" as="targetPoint" />
          </mxGeometry>
        </mxCell>
        <mxCell id="F7RabWUhUG6xYI9TRHBL-1" value="&lt;b&gt;Terms:&lt;/b&gt;&lt;hr&gt;&lt;div&gt;(&quot;aspect based&quot; AND sentiment) OR (&quot;aspect based&quot; AND extraction) OR (&quot;aspect based&quot; AND extract) OR (&quot;aspect based&quot; AND mining) OR (&quot;aspect-based&quot; AND sentiment) OR (&quot;aspect-based&quot; AND extraction) OR (&quot;aspect-based&quot; AND extract) OR (&quot;aspect-based&quot; AND mining) OR &quot;opinion mining&quot;&lt;/div&gt;&lt;div&gt;&lt;br&gt;&lt;/div&gt;" style="rounded=1;whiteSpace=wrap;html=1;fillColor=#fff2cc;strokeColor=#d6b656;" parent="1" vertex="1">
          <mxGeometry x="-120" y="40" width="320" height="160" as="geometry" />
        </mxCell>
        <mxCell id="F7RabWUhUG6xYI9TRHBL-3" value="&lt;b&gt;Terms:&lt;/b&gt;&lt;hr&gt;&lt;div&gt;(&quot;aspect based&quot; AND sentiment) OR (&quot;aspect based&quot; AND extraction) OR (&quot;aspect based&quot; AND extract) OR (&quot;aspect based&quot; AND mining) OR (&quot;aspect-based&quot; AND sentiment) OR (&quot;aspect-based&quot; AND extraction) OR (&quot;aspect-based&quot; AND extract) OR (&quot;aspect-based&quot; AND mining) OR &quot;opinion mining&quot;&lt;/div&gt;&lt;div&gt;&lt;ul&gt;&lt;li style=&quot;text-align: left;&quot;&gt;Proceedings, Journals&lt;/li&gt;&lt;li style=&quot;text-align: left;&quot;&gt;Research Article&lt;/li&gt;&lt;li style=&quot;text-align: left;&quot;&gt;pdf&lt;/li&gt;&lt;li style=&quot;text-align: left;&quot;&gt;2008-2024&lt;/li&gt;&lt;/ul&gt;&lt;/div&gt;&lt;div&gt;&lt;br&gt;&lt;/div&gt;" style="rounded=1;whiteSpace=wrap;html=1;fillColor=#fff2cc;strokeColor=#d6b656;" parent="1" vertex="1">
          <mxGeometry x="-120" y="240" width="320" height="240" as="geometry" />
        </mxCell>
        <mxCell id="F7RabWUhUG6xYI9TRHBL-4" value="&lt;b&gt;Terms:&lt;/b&gt;&lt;hr&gt;&lt;div&gt;(&quot;aspect based&quot; AND sentiment) OR (&quot;aspect based&quot; AND extraction) OR (&quot;aspect based&quot; AND extract) OR (&quot;aspect based&quot; AND mining) OR (&quot;aspect-based&quot; AND sentiment) OR (&quot;aspect-based&quot; AND extraction) OR (&quot;aspect-based&quot; AND extract) OR (&quot;aspect-based&quot; AND mining) OR &quot;opinion mining&quot;&lt;/div&gt;&lt;div style=&quot;text-align: left;&quot;&gt;&lt;ul&gt;&lt;li&gt;Journals, Conferences&lt;/li&gt;&lt;li&gt;2008-2024&lt;/li&gt;&lt;/ul&gt;&lt;/div&gt;&lt;div&gt;&lt;br&gt;&lt;/div&gt;" style="rounded=1;whiteSpace=wrap;html=1;fillColor=#fff2cc;strokeColor=#d6b656;" parent="1" vertex="1">
          <mxGeometry x="-120" y="520" width="320" height="200" as="geometry" />
        </mxCell>
        <mxCell id="F7RabWUhUG6xYI9TRHBL-5" value="&lt;b&gt;Terms:&lt;/b&gt;&lt;hr&gt;&lt;div&gt;&lt;div&gt;&quot;aspect based sentiment&quot; OR &quot;aspect based extraction&quot; OR &quot;aspect based extract&quot; OR &quot;aspect based mining&quot; OR &quot;aspect-based sentiment&quot; OR &quot;aspect-based extraction&quot; OR &quot;aspect-based extract&quot; OR &quot;aspect-based mining&quot; OR &quot;opinion mining&quot;&lt;/div&gt;&lt;/div&gt;&lt;div&gt;&lt;ul&gt;&lt;li style=&quot;text-align: left;&quot;&gt;Research article&lt;/li&gt;&lt;li style=&quot;text-align: left;&quot;&gt;2008-2024&lt;/li&gt;&lt;/ul&gt;&lt;/div&gt;&lt;div&gt;&lt;br&gt;&lt;/div&gt;" style="rounded=1;whiteSpace=wrap;html=1;fillColor=#fff2cc;strokeColor=#d6b656;" parent="1" vertex="1">
          <mxGeometry x="-120" y="760" width="320" height="200" as="geometry" />
        </mxCell>
        <UserObject label="&lt;font style=&quot;font-size: 15px;&quot;&gt;&lt;br&gt;&lt;span&gt;&lt;h3 class=&quot;LC20lb MBeuO DKV0Md&quot;&gt;ACL&lt;br style=&quot;font-size: 15px;&quot;&gt;&amp;nbsp;Anthology&lt;/h3&gt;&lt;div&gt;Results: 380&lt;/div&gt;&lt;/span&gt;&lt;/font&gt;" id="F7RabWUhUG6xYI9TRHBL-6">
          <mxCell style="strokeWidth=2;html=1;shape=mxgraph.flowchart.database;whiteSpace=wrap;fillColor=#dae8fc;strokeColor=#6c8ebf;" parent="1" vertex="1">
            <mxGeometry x="360" y="40" width="160" height="130" as="geometry" />
          </mxCell>
        </UserObject>
        <mxCell id="F7RabWUhUG6xYI9TRHBL-7" value="restriction on 8 bool operators" style="rounded=1;whiteSpace=wrap;html=1;fillColor=#f8cecc;strokeColor=#b85450;" parent="1" vertex="1">
          <mxGeometry x="-520" y="760" width="320" height="40" as="geometry" />
        </mxCell>
        <mxCell id="F7RabWUhUG6xYI9TRHBL-8" value="Cant select two types (Conference, Journals) at once" style="rounded=1;whiteSpace=wrap;html=1;fillColor=#f8cecc;strokeColor=#b85450;" parent="1" vertex="1">
          <mxGeometry x="-520" y="240" width="320" height="45" as="geometry" />
        </mxCell>
        <mxCell id="F7RabWUhUG6xYI9TRHBL-13" value="download only 100 citations at once" style="rounded=1;whiteSpace=wrap;html=1;fillColor=#f8cecc;strokeColor=#b85450;" parent="1" vertex="1">
          <mxGeometry x="-520" y="840" width="320" height="40" as="geometry" />
        </mxCell>
        <mxCell id="F7RabWUhUG6xYI9TRHBL-14" value="download only 100 citations at once" style="rounded=1;whiteSpace=wrap;html=1;fillColor=#f8cecc;strokeColor=#b85450;" parent="1" vertex="1">
          <mxGeometry x="-520" y="520" width="320" height="40" as="geometry" />
        </mxCell>
        <mxCell id="F7RabWUhUG6xYI9TRHBL-15" value="Search only in title and Abstract" style="rounded=1;whiteSpace=wrap;html=1;fillColor=#f8cecc;strokeColor=#b85450;" parent="1" vertex="1">
          <mxGeometry x="-520" y="40" width="320" height="40" as="geometry" />
        </mxCell>
        <mxCell id="bArLBwWa1-_lPCyF6bo4-1" value="&lt;div style=&quot;&quot;&gt;&lt;b&gt;Selection of Databases:&lt;/b&gt;&lt;/div&gt;&lt;hr&gt;&lt;div style=&quot;text-align: left;&quot;&gt;&lt;ul&gt;&lt;li&gt;Easy Download of .bib + Abstract&lt;/li&gt;&lt;li&gt;based on the work of: Hua, Y. C., Denny, P., Wicker, J., &amp;amp; Taskova, K. (2024). A systematic review of aspect-based sentiment analysis: domains, methods, and trends. &lt;i style=&quot;background-color: initial;&quot;&gt;Artificial Intelligence Review&lt;/i&gt;&lt;span style=&quot;background-color: initial;&quot;&gt;, &lt;/span&gt;&lt;i style=&quot;background-color: initial;&quot;&gt;57&lt;/i&gt;&lt;span style=&quot;background-color: initial;&quot;&gt;(11), 296.&lt;/span&gt;&lt;/li&gt;&lt;/ul&gt;&lt;/div&gt;" style="rounded=1;whiteSpace=wrap;html=1;" parent="1" vertex="1">
          <mxGeometry y="-480" width="440" height="200" as="geometry" />
        </mxCell>
        <mxCell id="bArLBwWa1-_lPCyF6bo4-2" value="&lt;div style=&quot;&quot;&gt;&lt;b&gt;What Searchcriteria where used:&lt;/b&gt;&lt;/div&gt;&lt;hr&gt;&lt;div style=&quot;text-align: left;&quot;&gt;&lt;ul&gt;&lt;li&gt;&lt;span style=&quot;&quot;&gt;&quot;aspect based sentiment&quot; OR &quot;aspect based extraction&quot; OR &quot;aspect based extract&quot; OR &quot;aspect based mining&quot; OR &quot;aspect-based sentiment&quot; OR &quot;aspect-based extraction&quot; OR &quot;aspect-based extract&quot; OR &quot;aspect-based mining&quot; OR &quot;opinion mining&quot; based on Hua et al.&lt;/span&gt;&lt;/li&gt;&lt;li&gt;&lt;span style=&quot;&quot;&gt;Year: 2008-2024 based on Hua et al.&lt;/span&gt;&lt;/li&gt;&lt;li&gt;&lt;b&gt;If possible:&amp;nbsp;&lt;/b&gt;&lt;/li&gt;&lt;ul&gt;&lt;li&gt;&lt;span style=&quot;&quot;&gt;Filetype:pdf&lt;/span&gt;&lt;/li&gt;&lt;li&gt;Publication Type: Article, Conderence Paper, Journal, Research Article&lt;/li&gt;&lt;li&gt;Language: English&lt;/li&gt;&lt;/ul&gt;&lt;/ul&gt;&lt;/div&gt;" style="rounded=1;whiteSpace=wrap;html=1;" parent="1" vertex="1">
          <mxGeometry x="-520" y="-480" width="440" height="200" as="geometry" />
        </mxCell>
        <mxCell id="bArLBwWa1-_lPCyF6bo4-10" style="edgeStyle=orthogonalEdgeStyle;rounded=0;orthogonalLoop=1;jettySize=auto;html=1;entryX=0;entryY=0.5;entryDx=0;entryDy=0;" parent="1" source="bArLBwWa1-_lPCyF6bo4-3" target="bArLBwWa1-_lPCyF6bo4-8" edge="1">
          <mxGeometry relative="1" as="geometry" />
        </mxCell>
        <mxCell id="bArLBwWa1-_lPCyF6bo4-3" value="&lt;b&gt;Restrictions:&lt;/b&gt;" style="rounded=1;whiteSpace=wrap;html=1;fillColor=#f8cecc;strokeColor=#b85450;" parent="1" vertex="1">
          <mxGeometry x="-520" y="-120" width="320" height="40" as="geometry" />
        </mxCell>
        <mxCell id="bArLBwWa1-_lPCyF6bo4-4" value="&lt;b&gt;Identification&lt;/b&gt;" style="rounded=1;whiteSpace=wrap;html=1;" parent="1" vertex="1">
          <mxGeometry x="-520" y="-240" width="1440" height="40" as="geometry" />
        </mxCell>
        <mxCell id="bArLBwWa1-_lPCyF6bo4-12" style="edgeStyle=orthogonalEdgeStyle;rounded=0;orthogonalLoop=1;jettySize=auto;html=1;entryX=0;entryY=0.5;entryDx=0;entryDy=0;" parent="1" source="bArLBwWa1-_lPCyF6bo4-5" target="bArLBwWa1-_lPCyF6bo4-6" edge="1">
          <mxGeometry relative="1" as="geometry" />
        </mxCell>
        <mxCell id="bArLBwWa1-_lPCyF6bo4-5" value="&lt;b&gt;Database + Results&lt;/b&gt;" style="rounded=1;whiteSpace=wrap;html=1;fillColor=#dae8fc;strokeColor=#6c8ebf;" parent="1" vertex="1">
          <mxGeometry x="240" y="-120" width="320" height="40" as="geometry" />
        </mxCell>
        <mxCell id="bArLBwWa1-_lPCyF6bo4-13" style="edgeStyle=orthogonalEdgeStyle;rounded=0;orthogonalLoop=1;jettySize=auto;html=1;" parent="1" source="bArLBwWa1-_lPCyF6bo4-6" target="bArLBwWa1-_lPCyF6bo4-7" edge="1">
          <mxGeometry relative="1" as="geometry" />
        </mxCell>
        <mxCell id="bArLBwWa1-_lPCyF6bo4-6" value="&lt;b&gt;Searchtype&lt;/b&gt;" style="rounded=1;whiteSpace=wrap;html=1;fillColor=#d5e8d4;strokeColor=#82b366;" parent="1" vertex="1">
          <mxGeometry x="600" y="-120" width="320" height="40" as="geometry" />
        </mxCell>
        <mxCell id="bArLBwWa1-_lPCyF6bo4-20" style="edgeStyle=orthogonalEdgeStyle;rounded=0;orthogonalLoop=1;jettySize=auto;html=1;entryX=0;entryY=0.5;entryDx=0;entryDy=0;" parent="1" source="bArLBwWa1-_lPCyF6bo4-7" target="bArLBwWa1-_lPCyF6bo4-18" edge="1">
          <mxGeometry relative="1" as="geometry" />
        </mxCell>
        <mxCell id="bArLBwWa1-_lPCyF6bo4-7" value="&lt;b&gt;Preselection&lt;/b&gt;" style="rounded=1;whiteSpace=wrap;html=1;fillColor=#e3c800;strokeColor=#B09500;fontColor=#000000;" parent="1" vertex="1">
          <mxGeometry x="960" y="-120" width="880" height="40" as="geometry" />
        </mxCell>
        <mxCell id="bArLBwWa1-_lPCyF6bo4-11" style="edgeStyle=orthogonalEdgeStyle;rounded=0;orthogonalLoop=1;jettySize=auto;html=1;" parent="1" source="bArLBwWa1-_lPCyF6bo4-8" target="bArLBwWa1-_lPCyF6bo4-5" edge="1">
          <mxGeometry relative="1" as="geometry" />
        </mxCell>
        <mxCell id="bArLBwWa1-_lPCyF6bo4-8" value="&lt;b&gt;Searchstring + Searchcriteria&lt;/b&gt;" style="rounded=1;whiteSpace=wrap;html=1;fillColor=#fff2cc;strokeColor=#d6b656;" parent="1" vertex="1">
          <mxGeometry x="-120" y="-120" width="320" height="40" as="geometry" />
        </mxCell>
        <mxCell id="bArLBwWa1-_lPCyF6bo4-9" value="&lt;b&gt;Preselection&lt;/b&gt;" style="rounded=1;whiteSpace=wrap;html=1;" parent="1" vertex="1">
          <mxGeometry x="960" y="-240" width="1240" height="40" as="geometry" />
        </mxCell>
        <mxCell id="bArLBwWa1-_lPCyF6bo4-14" value="PDF Download as BULK but just 10 papers" style="rounded=1;whiteSpace=wrap;html=1;fillColor=#f8cecc;strokeColor=#b85450;" parent="1" vertex="1">
          <mxGeometry x="-520" y="600" width="320" height="40" as="geometry" />
        </mxCell>
        <mxCell id="bArLBwWa1-_lPCyF6bo4-15" value="PDF Download as BULK but just 100 papers per day" style="rounded=1;whiteSpace=wrap;html=1;fillColor=#f8cecc;strokeColor=#b85450;" parent="1" vertex="1">
          <mxGeometry x="-520" y="920" width="320" height="40" as="geometry" />
        </mxCell>
        <mxCell id="bArLBwWa1-_lPCyF6bo4-16" value="No PDF Bulk download" style="rounded=1;whiteSpace=wrap;html=1;fillColor=#f8cecc;strokeColor=#b85450;" parent="1" vertex="1">
          <mxGeometry x="-520" y="322.5" width="320" height="37.5" as="geometry" />
        </mxCell>
        <mxCell id="bArLBwWa1-_lPCyF6bo4-18" value="&lt;b&gt;Manual Selection&lt;/b&gt;" style="rounded=1;whiteSpace=wrap;html=1;fillColor=#e3c800;strokeColor=#B09500;fontColor=#000000;" parent="1" vertex="1">
          <mxGeometry x="1880" y="-120" width="320" height="40" as="geometry" />
        </mxCell>
        <mxCell id="pbYcI8hMlxr6NiOWamHX-3" style="edgeStyle=orthogonalEdgeStyle;rounded=0;orthogonalLoop=1;jettySize=auto;html=1;entryX=0;entryY=0.5;entryDx=0;entryDy=0;exitX=0.5;exitY=1;exitDx=0;exitDy=0;" parent="1" source="-G4jtrp53y9SYAz4rAgf-1" target="pbYcI8hMlxr6NiOWamHX-2" edge="1">
          <mxGeometry relative="1" as="geometry">
            <mxPoint x="1194.7999999999997" y="685.4000000000001" as="targetPoint" />
            <mxPoint x="1120" y="530" as="sourcePoint" />
            <Array as="points">
              <mxPoint x="1120" y="700" />
            </Array>
          </mxGeometry>
        </mxCell>
        <mxCell id="pbYcI8hMlxr6NiOWamHX-5" style="edgeStyle=orthogonalEdgeStyle;rounded=0;orthogonalLoop=1;jettySize=auto;html=1;entryX=-0.011;entryY=0.497;entryDx=0;entryDy=0;entryPerimeter=0;" parent="1" source="-G4jtrp53y9SYAz4rAgf-1" target="pbYcI8hMlxr6NiOWamHX-4" edge="1">
          <mxGeometry relative="1" as="geometry">
            <mxPoint x="1260" y="920" as="targetPoint" />
            <Array as="points">
              <mxPoint x="1120" y="940" />
              <mxPoint x="1260" y="940" />
            </Array>
          </mxGeometry>
        </mxCell>
        <mxCell id="pbYcI8hMlxr6NiOWamHX-7" style="edgeStyle=orthogonalEdgeStyle;rounded=0;orthogonalLoop=1;jettySize=auto;html=1;entryX=0;entryY=0.5;entryDx=0;entryDy=0;" parent="1" source="-G4jtrp53y9SYAz4rAgf-1" target="pbYcI8hMlxr6NiOWamHX-6" edge="1">
          <mxGeometry relative="1" as="geometry">
            <mxPoint x="1220" y="1170" as="targetPoint" />
            <Array as="points">
              <mxPoint x="1120" y="1180" />
            </Array>
          </mxGeometry>
        </mxCell>
        <mxCell id="-G4jtrp53y9SYAz4rAgf-1" value="&lt;div&gt;&lt;b&gt;Automatic exclusion of entries:&lt;/b&gt;&lt;/div&gt;&lt;div&gt;&lt;ul&gt;&lt;li style=&quot;text-align: left;&quot;&gt;remove duplicate titles and or dois&lt;/li&gt;&lt;li style=&quot;text-align: left;&quot;&gt;Keywords in abstract&lt;/li&gt;&lt;li style=&quot;text-align: left;&quot;&gt;check language in Abstract&lt;/li&gt;&lt;/ul&gt;&lt;/div&gt;" style="rounded=1;whiteSpace=wrap;html=1;fillColor=#e3c800;fontColor=#000000;strokeColor=#B09500;" parent="1" vertex="1">
          <mxGeometry x="1000" y="80" width="240" height="440" as="geometry" />
        </mxCell>
        <mxCell id="-G4jtrp53y9SYAz4rAgf-3" value="&lt;b&gt;Inclusion Criteria&lt;/b&gt;&lt;hr&gt;&lt;div&gt;&lt;ul&gt;&lt;li style=&quot;text-align: left;&quot;&gt;Published in the English language&lt;/li&gt;&lt;li style=&quot;text-align: left;&quot;&gt;Has both the sentiment analysis component and entity/aspect-level granularity&lt;/li&gt;&lt;li style=&quot;text-align: left;&quot;&gt;Focuses on text data&amp;nbsp;&lt;/li&gt;&lt;li style=&quot;text-align: left;&quot;&gt;Contains a new (completly new or improved) dataset&amp;nbsp;&lt;/li&gt;&lt;/ul&gt;&lt;div&gt;&lt;br&gt;&lt;/div&gt;&lt;/div&gt;" style="rounded=1;whiteSpace=wrap;html=1;movable=1;resizable=1;rotatable=1;deletable=1;editable=1;locked=0;connectable=1;" parent="1" vertex="1">
          <mxGeometry x="-520" y="-800" width="440" height="200" as="geometry" />
        </mxCell>
        <mxCell id="-G4jtrp53y9SYAz4rAgf-4" value="&lt;b&gt;Exclusion Criteria&lt;/b&gt;&lt;hr&gt;&lt;div&gt;&lt;ul&gt;&lt;li style=&quot;text-align: left;&quot;&gt;The main text of the article is not in the English language&lt;/li&gt;&lt;li style=&quot;text-align: left;&quot;&gt;Missing either the sentiment analysis or entity/aspect-level granularity in the research focus&lt;/li&gt;&lt;li style=&quot;text-align: left;&quot;&gt;Contains multimodal (i.e. non-text) input data for ABSA task(s)&lt;/li&gt;&lt;li style=&quot;text-align: left;&quot;&gt;The research focus is not on ABSA task(s), even though ABSA models might be involved (e.g. recommender system)&lt;/li&gt;&lt;/ul&gt;&lt;/div&gt;" style="rounded=1;whiteSpace=wrap;html=1;" parent="1" vertex="1">
          <mxGeometry y="-800" width="440" height="200" as="geometry" />
        </mxCell>
        <mxCell id="-G4jtrp53y9SYAz4rAgf-5" value="&lt;b&gt;Automatic search for dataset glues in Abstract&lt;/b&gt;&lt;hr&gt;&lt;div&gt;&lt;ul&gt;&lt;li style=&quot;text-align: left;&quot;&gt;Searchterm in Abstract:&lt;/li&gt;&lt;ul&gt;&lt;li style=&quot;text-align: left;&quot;&gt;Dataset&lt;/li&gt;&lt;li style=&quot;text-align: left;&quot;&gt;Corpus&lt;/li&gt;&lt;li style=&quot;text-align: left;&quot;&gt;benchmark dataset&lt;/li&gt;&lt;li style=&quot;text-align: left;&quot;&gt;sentiment corpus&lt;/li&gt;&lt;li style=&quot;text-align: left;&quot;&gt;data&lt;/li&gt;&lt;li style=&quot;text-align: left;&quot;&gt;new dataset&lt;/li&gt;&lt;li style=&quot;text-align: left;&quot;&gt;annotations&lt;/li&gt;&lt;li style=&quot;text-align: left;&quot;&gt;inter-annotator agreement&lt;/li&gt;&lt;li style=&quot;text-align: left;&quot;&gt;annotated&lt;/li&gt;&lt;li style=&quot;text-align: left;&quot;&gt;human annotated&lt;/li&gt;&lt;li style=&quot;text-align: left;&quot;&gt;annotated by humans&lt;/li&gt;&lt;li style=&quot;text-align: left;&quot;&gt;manually annotated&lt;/li&gt;&lt;li style=&quot;text-align: left;&quot;&gt;dataset includes&lt;/li&gt;&lt;li style=&quot;text-align: left;&quot;&gt;The corpus consists&lt;/li&gt;&lt;li style=&quot;text-align: left;&quot;&gt;construct (maybe)&lt;/li&gt;&lt;li style=&quot;text-align: left;&quot;&gt;publicly available&lt;/li&gt;&lt;li style=&quot;text-align: left;&quot;&gt;publicly released&lt;/li&gt;&lt;li style=&quot;text-align: left;&quot;&gt;available&lt;/li&gt;&lt;/ul&gt;&lt;/ul&gt;&lt;/div&gt;" style="rounded=1;whiteSpace=wrap;html=1;fillColor=#e3c800;fontColor=#000000;strokeColor=#B09500;" parent="1" vertex="1">
          <mxGeometry x="1840" y="80" width="240" height="440" as="geometry" />
        </mxCell>
        <mxCell id="-G4jtrp53y9SYAz4rAgf-6" value="&lt;b&gt;Suitability&lt;/b&gt;" style="rounded=1;whiteSpace=wrap;html=1;" parent="1" vertex="1">
          <mxGeometry x="2280" y="-240" width="320" height="40" as="geometry" />
        </mxCell>
        <mxCell id="-G4jtrp53y9SYAz4rAgf-7" value="&lt;b&gt;Included&lt;/b&gt;" style="rounded=1;whiteSpace=wrap;html=1;" parent="1" vertex="1">
          <mxGeometry x="2640" y="-240" width="360" height="40" as="geometry" />
        </mxCell>
        <mxCell id="pbYcI8hMlxr6NiOWamHX-2" value="&lt;b&gt;Filter for ABSA keywords in abstract (n=1)&lt;/b&gt;&lt;hr&gt;ACL:&amp;nbsp;380 to 355&lt;div&gt;ACM:&amp;nbsp;1331 to&amp;nbsp;603&lt;/div&gt;&lt;div&gt;IEEE:&amp;nbsp;2325 to&amp;nbsp;1936&lt;/div&gt;&lt;div&gt;Science Direct:&amp;nbsp;2484 to&amp;nbsp;1094&lt;/div&gt;" style="rounded=1;whiteSpace=wrap;html=1;fillColor=#e3c800;fontColor=#000000;strokeColor=#B09500;" parent="1" vertex="1">
          <mxGeometry x="1280" y="600" width="240" height="200" as="geometry" />
        </mxCell>
        <mxCell id="pbYcI8hMlxr6NiOWamHX-4" value="&lt;b&gt;Filter for English language in abstract&lt;/b&gt;&lt;hr&gt;ACL: 355 to 355&lt;div&gt;ACM: 603 to&amp;nbsp;603&lt;/div&gt;&lt;div&gt;IEEE: 1936 to&amp;nbsp;1936&lt;/div&gt;&lt;div&gt;Science Direct: 1094 to 1093&lt;/div&gt;" style="rounded=1;whiteSpace=wrap;html=1;fillColor=#e3c800;fontColor=#000000;strokeColor=#B09500;" parent="1" vertex="1">
          <mxGeometry x="1280" y="840" width="240" height="200" as="geometry" />
        </mxCell>
        <mxCell id="pbYcI8hMlxr6NiOWamHX-6" value="&lt;b&gt;Filter for year (&amp;gt;=2008) in entry&lt;/b&gt;&lt;hr&gt;ACL: 355 to 354&lt;div&gt;ACM: 603 to&amp;nbsp;600&lt;/div&gt;&lt;div&gt;&lt;span style=&quot;background-color: initial;&quot;&gt;IEEE: 1936 to&amp;nbsp;1936&lt;/span&gt;&lt;/div&gt;&lt;div&gt;Science Direct: 1093 to 1093&lt;/div&gt;" style="rounded=1;whiteSpace=wrap;html=1;fillColor=#e3c800;fontColor=#000000;strokeColor=#B09500;" parent="1" vertex="1">
          <mxGeometry x="1280" y="1080" width="240" height="200" as="geometry" />
        </mxCell>
        <mxCell id="pbYcI8hMlxr6NiOWamHX-8" value="&lt;b&gt;Filter for ABSA keywords in abstract (n&amp;gt;=2)&lt;/b&gt;&lt;hr&gt;ACL:&amp;nbsp;380 to 265&lt;div&gt;ACM:&amp;nbsp;1331 to 198&lt;/div&gt;&lt;div&gt;IEEE:&amp;nbsp;2325 to 1100&lt;/div&gt;&lt;div&gt;Science Direct:&amp;nbsp;2484 to 336&lt;/div&gt;" style="rounded=1;whiteSpace=wrap;html=1;fillColor=#e3c800;fontColor=#000000;strokeColor=#B09500;" parent="1" vertex="1">
          <mxGeometry x="1560" y="600" width="240" height="200" as="geometry" />
        </mxCell>
        <mxCell id="pbYcI8hMlxr6NiOWamHX-9" value="&lt;b&gt;Filter for English language in abstract&lt;/b&gt;&lt;hr&gt;ACL: 265 to 265&lt;div&gt;ACM: 198 to&amp;nbsp;&lt;span style=&quot;background-color: initial;&quot;&gt;198&lt;/span&gt;&lt;/div&gt;&lt;div&gt;IEEE: 1100 to&amp;nbsp;&lt;span style=&quot;background-color: initial;&quot;&gt;1100&lt;/span&gt;&lt;/div&gt;&lt;div&gt;Science Direct: 336 o&amp;nbsp;&lt;span style=&quot;background-color: initial;&quot;&gt;336&lt;/span&gt;&lt;/div&gt;" style="rounded=1;whiteSpace=wrap;html=1;fillColor=#e3c800;fontColor=#000000;strokeColor=#B09500;" parent="1" vertex="1">
          <mxGeometry x="1560" y="840" width="240" height="200" as="geometry" />
        </mxCell>
        <mxCell id="pbYcI8hMlxr6NiOWamHX-10" value="&lt;b&gt;Filter for year (&amp;gt;=2008) in entry&lt;/b&gt;&lt;hr&gt;ACL: 265 to 265&lt;div&gt;ACM: 198 to 198&lt;/div&gt;&lt;div&gt;&lt;span style=&quot;background-color: initial;&quot;&gt;IEEE: 1100 to&amp;nbsp;1100&lt;/span&gt;&lt;/div&gt;&lt;div&gt;Science Direct: 336 to 336&lt;/div&gt;" style="rounded=1;whiteSpace=wrap;html=1;fillColor=#e3c800;fontColor=#000000;strokeColor=#B09500;" parent="1" vertex="1">
          <mxGeometry x="1560" y="1080" width="240" height="200" as="geometry" />
        </mxCell>
        <mxCell id="pbYcI8hMlxr6NiOWamHX-11" value="&lt;b&gt;Filter for Keywords 2 in Abstract&lt;/b&gt;&lt;hr&gt;ACL: 265 to 166&lt;div&gt;ACM: 198 to 118&lt;/div&gt;&lt;div&gt;&lt;span style=&quot;background-color: initial;&quot;&gt;IEEE: 1100 to&amp;nbsp;474&lt;/span&gt;&lt;/div&gt;&lt;div&gt;Science Direct: 336 to 201&lt;/div&gt;" style="rounded=1;whiteSpace=wrap;html=1;fillColor=#e3c800;fontColor=#000000;strokeColor=#B09500;" parent="1" vertex="1">
          <mxGeometry x="1560" y="1320" width="240" height="200" as="geometry" />
        </mxCell>
        <mxCell id="pbYcI8hMlxr6NiOWamHX-12" value="&lt;b&gt;Unique Entries&lt;/b&gt;&lt;hr&gt;&lt;div&gt;All: 959 to 885&lt;/div&gt;" style="rounded=1;whiteSpace=wrap;html=1;fillColor=#e3c800;fontColor=#000000;strokeColor=#B09500;" parent="1" vertex="1">
          <mxGeometry x="1560" y="1560" width="240" height="200" as="geometry" />
        </mxCell>
        <mxCell id="xn4Ccg8mGfuQH4dNMlC--1" value="&lt;b&gt;Manuel Selection based on Abstract&lt;/b&gt;&lt;hr&gt;&lt;div&gt;All: 885 to 0&lt;/div&gt;" style="rounded=1;whiteSpace=wrap;html=1;fillColor=#e3c800;fontColor=#000000;strokeColor=#B09500;" parent="1" vertex="1">
          <mxGeometry x="1840" y="1560" width="240" height="200" as="geometry" />
        </mxCell>
        <mxCell id="xn4Ccg8mGfuQH4dNMlC--2" value="&lt;div&gt;&lt;b&gt;Acess of full articels&lt;/b&gt;&lt;/div&gt;&lt;hr&gt;&lt;div&gt;All: 0 to 0&lt;/div&gt;" style="rounded=1;whiteSpace=wrap;html=1;fillColor=#e3c800;fontColor=#000000;strokeColor=#B09500;" parent="1" vertex="1">
          <mxGeometry x="2120" y="1560" width="240" height="200" as="geometry" />
        </mxCell>
        <mxCell id="xn4Ccg8mGfuQH4dNMlC--3" value="&lt;div&gt;&lt;b&gt;Improvement of initial keywords based on 100 random examples&lt;/b&gt;&lt;/div&gt;&lt;hr&gt;&lt;div&gt;New words:&lt;/div&gt;&lt;div&gt;&lt;ul&gt;&lt;li style=&quot;text-align: left;&quot;&gt;word 1&lt;/li&gt;&lt;/ul&gt;&lt;/div&gt;" style="rounded=1;whiteSpace=wrap;html=1;fillColor=#e3c800;fontColor=#000000;strokeColor=#B09500;" parent="1" vertex="1">
          <mxGeometry x="2400" y="80" width="240" height="200" as="geometry" />
        </mxCell>
        <mxCell id="xn4Ccg8mGfuQH4dNMlC--4" value="&lt;b&gt;Updated: Automatic search for dataset glues in Abstract&lt;/b&gt;&lt;hr&gt;&lt;div&gt;&lt;ul&gt;&lt;li style=&quot;text-align: left;&quot;&gt;Searchterm in Abstract:&lt;/li&gt;&lt;ul&gt;&lt;li style=&quot;text-align: left;&quot;&gt;Dataset&lt;/li&gt;&lt;li style=&quot;text-align: left;&quot;&gt;Corpus&lt;/li&gt;&lt;li style=&quot;text-align: left;&quot;&gt;benchmark dataset&lt;/li&gt;&lt;li style=&quot;text-align: left;&quot;&gt;sentiment corpus&lt;/li&gt;&lt;li style=&quot;text-align: left;&quot;&gt;data&lt;/li&gt;&lt;li style=&quot;text-align: left;&quot;&gt;new dataset&lt;/li&gt;&lt;li style=&quot;text-align: left;&quot;&gt;annotations&lt;/li&gt;&lt;li style=&quot;text-align: left;&quot;&gt;inter-annotator agreement&lt;/li&gt;&lt;li style=&quot;text-align: left;&quot;&gt;annotated&lt;/li&gt;&lt;li style=&quot;text-align: left;&quot;&gt;human annotated&lt;/li&gt;&lt;li style=&quot;text-align: left;&quot;&gt;annotated by humans&lt;/li&gt;&lt;li style=&quot;text-align: left;&quot;&gt;manually annotated&lt;/li&gt;&lt;li style=&quot;text-align: left;&quot;&gt;dataset includes&lt;/li&gt;&lt;li style=&quot;text-align: left;&quot;&gt;The corpus consists&lt;/li&gt;&lt;li style=&quot;text-align: left;&quot;&gt;construct (maybe)&lt;/li&gt;&lt;li style=&quot;text-align: left;&quot;&gt;publicly available&lt;/li&gt;&lt;li style=&quot;text-align: left;&quot;&gt;publicly released&lt;/li&gt;&lt;li style=&quot;text-align: left;&quot;&gt;available&lt;/li&gt;&lt;/ul&gt;&lt;/ul&gt;&lt;/div&gt;" style="rounded=1;whiteSpace=wrap;html=1;fillColor=#e3c800;fontColor=#000000;strokeColor=#B09500;" parent="1" vertex="1">
          <mxGeometry x="2680" y="80" width="240" height="440" as="geometry" />
        </mxCell>
        <mxCell id="_nYO_vl3AFeizgdtxbw9-1" value="&lt;b&gt;Filter for German/Multilingual in abstract&amp;nbsp;&lt;/b&gt;&lt;hr&gt;ACL:&amp;nbsp;166 to 8&lt;div&gt;ACM:&amp;nbsp;118 to 6&lt;/div&gt;&lt;div&gt;IEEE: 474 to 15&lt;/div&gt;&lt;div&gt;Science Direct:&amp;nbsp;201 to 6&lt;/div&gt;" style="rounded=1;whiteSpace=wrap;html=1;fillColor=#e3c800;fontColor=#000000;strokeColor=#B09500;" parent="1" vertex="1">
          <mxGeometry x="2120" y="600" width="240" height="200" as="geometry" />
        </mxCell>
        <mxCell id="pLVuVkbzIdpgdQXRqBFa-1" value="&lt;b&gt;Filter for German/Multilingual in abstract&amp;nbsp;&lt;/b&gt;&lt;hr&gt;&lt;blockquote style=&quot;margin: 0 0 0 40px; border: none; padding: 0px;&quot;&gt;&lt;li style=&quot;text-align: left;&quot; data-end=&quot;10&quot; data-start=&quot;0&quot;&gt;German&lt;/li&gt;&lt;li style=&quot;text-align: left;&quot; data-end=&quot;22&quot; data-start=&quot;11&quot;&gt;Deutsch&lt;/li&gt;&lt;li style=&quot;text-align: left;&quot; data-end=&quot;39&quot; data-start=&quot;23&quot;&gt;multilingual&lt;/li&gt;&lt;li style=&quot;text-align: left;&quot; data-end=&quot;73&quot; data-start=&quot;40&quot;&gt;multi-lingual / multi lingual&lt;/li&gt;&lt;li style=&quot;text-align: left;&quot; data-end=&quot;82&quot; data-start=&quot;74&quot;&gt;DACH&lt;/li&gt;&lt;li style=&quot;text-align: left;&quot; data-end=&quot;90&quot; data-start=&quot;83&quot;&gt;GER&lt;/li&gt;&lt;li style=&quot;text-align: left;&quot; data-end=&quot;110&quot; data-start=&quot;91&quot;&gt;European German&lt;/li&gt;&lt;li style=&quot;text-align: left;&quot; data-end=&quot;126&quot; data-start=&quot;111&quot;&gt;High German&lt;/li&gt;&lt;li style=&quot;text-align: left;&quot; data-end=&quot;143&quot; data-start=&quot;127&quot;&gt;Swiss German&lt;/li&gt;&lt;li style=&quot;text-align: left;&quot; data-end=&quot;163&quot; data-start=&quot;144&quot;&gt;Austrian German&lt;/li&gt;&lt;li style=&quot;text-align: left;&quot; data-is-last-node=&quot;&quot; data-end=&quot;220&quot; data-start=&quot;164&quot;&gt;German/Deutsch dataset, corpus, text, language, data&lt;/li&gt;&lt;/blockquote&gt;" style="rounded=1;whiteSpace=wrap;html=1;fillColor=#e3c800;fontColor=#000000;strokeColor=#B09500;" vertex="1" parent="1">
          <mxGeometry x="2120" y="80" width="240" height="320" as="geometry" />
        </mxCell>
      </root>
    </mxGraphModel>
  </diagram>
</mxfile>
